<?xml version="1.0" encoding="UTF-8" standalone="no"?>
<svg width="66px" height="41px" viewBox="0 0 66 41" version="1.1" xmlns="http://www.w3.org/2000/svg" xmlns:xlink="http://www.w3.org/1999/xlink">
    <!-- Generator: Sketch 43.2 (39069) - http://www.bohemiancoding.com/sketch -->
    <title>code-icon</title>
    <desc>Created with Sketch.</desc>
    <defs></defs>
    <g id="High-fidelity" stroke="none" stroke-width="1" fill="none" fill-rule="evenodd" fill-opacity="0.74">
        <g id="Desktop-Copy-35" transform="translate(-369.000000, -614.000000)" fill="#000000">
            <path d="M390.802067,646.520148 L389.336551,647.985237 C389.141147,648.180583 388.916437,648.278254 388.662413,648.278254 C388.408389,648.278254 388.183679,648.180583 387.988275,647.985237 L369.293103,634.330612 C369.0977,634.135266 369,633.910621 369,633.656671 C369,633.402721 369.0977,633.178076 369.293103,632.98273 L387.988275,619.328105 C388.183679,619.132759 388.408389,619.035088 388.662413,619.035088 C388.916437,619.035088 389.141147,619.132759 389.336551,619.328105 L390.802067,620.793194 C390.99747,620.98854 391.09517,621.213185 391.09517,621.467135 C391.09517,621.721085 390.99747,621.945729 390.802067,622.141075 L374.246549,633.656671 L390.802067,645.172267 C390.99747,645.367613 391.09517,645.592257 391.09517,645.846207 C391.09517,646.100157 390.99747,646.324802 390.802067,646.520148 Z M405.680107,614 L409.273415,614 L397.077763,655 L393.484455,655 L405.680107,614 Z M413.197933,646.520148 L414.663449,647.985237 C414.858853,648.180583 415.083563,648.278254 415.337587,648.278254 C415.591611,648.278254 415.816321,648.180583 416.011725,647.985237 L434.706897,634.330612 C434.9023,634.135266 435,633.910621 435,633.656671 C435,633.402721 434.9023,633.178076 434.706897,632.98273 L416.011725,619.328105 C415.816321,619.132759 415.591611,619.035088 415.337587,619.035088 C415.083563,619.035088 414.858853,619.132759 414.663449,619.328105 L413.197933,620.793194 C413.00253,620.98854 412.90483,621.213185 412.90483,621.467135 C412.90483,621.721085 413.00253,621.945729 413.197933,622.141075 L429.753451,633.656671 L413.197933,645.172267 C413.00253,645.367613 412.90483,645.592257 412.90483,645.846207 C412.90483,646.100157 413.00253,646.324802 413.197933,646.520148 Z" id="code-icon"></path>
        </g>
    </g>
</svg>