<?xml version="1.0" encoding="UTF-8" standalone="no"?>
<svg width="22px" height="44px" viewBox="0 0 22 44" version="1.1" xmlns="http://www.w3.org/2000/svg" xmlns:xlink="http://www.w3.org/1999/xlink">
    <!-- Generator: Sketch 43.2 (39069) - http://www.bohemiancoding.com/sketch -->
    <title>compass-icon</title>
    <desc>Created with Sketch.</desc>
    <defs></defs>
    <g id="High-fidelity" stroke="none" stroke-width="1" fill="none" fill-rule="evenodd" fill-opacity="0.74">
        <g id="Desktop-Copy-35" transform="translate(-623.000000, -614.000000)" fill="#000000">
            <g id="Focus-Areas" transform="translate(333.000000, 526.000000)">
                <g id="Area-Copy" transform="translate(266.000000, 88.000000)">
                    <g id="Compass" transform="translate(24.000000, 0.000000)">
                        <path d="M9.87876351,4.60551508 C9.87769984,4.58927831 9.87715976,4.57292177 9.87715976,4.55646347 L9.87715976,0.76200717 C9.87715976,0.341162231 10.2144,0 10.6369413,0 C11.056557,0 11.3967228,0.348959713 11.3967228,0.76200717 L11.3967228,4.55646347 C11.3967228,4.57294423 11.3962056,4.5893028 11.3951864,4.60552346 C14.3942648,4.97872816 16.7151934,7.53679375 16.7151934,10.6369413 C16.7151934,13.1644228 15.1725234,15.3315944 12.9774006,16.2482389 L16.1405011,28.1119162 L20.895436,28.1119162 C21.524062,28.1119162 22.0336641,28.6177767 22.0336641,29.2515885 C22.0336641,29.8810121 21.5320616,30.3912608 20.895436,30.3912608 L16.7482213,30.3912608 L18.3366081,36.3487409 C18.6205364,37.4136563 18.4034506,39.053075 17.8503527,40.0128811 L16.0812092,43.0829247 C15.5287294,44.0416581 14.9421282,43.9429718 14.7695177,42.8531519 L12.795748,30.3912608 L8.79856168,30.3912608 L6.82479203,42.8531519 C6.65218151,43.9429718 6.06558031,44.0416581 5.51310053,43.0829247 L3.74395698,40.0128811 C3.19085909,39.053075 2.97377326,37.4136563 3.25770161,36.3487409 L4.84608842,30.3912608 L1.13822805,30.3912608 C0.509602054,30.3912608 0,29.8854004 0,29.2515885 C0,28.6221649 0.501602506,28.1119162 1.13822805,28.1119162 L5.45380859,28.1119162 L8.58689702,16.3608037 C6.23864365,15.5196611 4.55868912,13.2744884 4.55868912,10.6369413 C4.55868912,7.53677056 6.87965252,4.97868988 9.87876351,4.60551508 Z M9.15957439,28.1119162 L12.4347353,28.1119162 L10.7971549,17.7726401 L9.15957439,28.1119162 Z M10.6369413,14.4358489 C12.73502,14.4358489 14.4358489,12.73502 14.4358489,10.6369413 C14.4358489,8.53886254 12.73502,6.83803368 10.6369413,6.83803368 C8.53886254,6.83803368 6.83803368,8.53886254 6.83803368,10.6369413 C6.83803368,12.73502 8.53886254,14.4358489 10.6369413,14.4358489 Z" id="compass-icon"></path>
                    </g>
                </g>
            </g>
        </g>
    </g>
</svg>