<?xml version="1.0" encoding="UTF-8" standalone="no"?>
<svg width="52px" height="50px" viewBox="0 0 52 50" version="1.1" xmlns="http://www.w3.org/2000/svg" xmlns:xlink="http://www.w3.org/1999/xlink">
    <!-- Generator: Sketch 43.2 (39069) - http://www.bohemiancoding.com/sketch -->
    <title>Shape</title>
    <desc>Created with Sketch.</desc>
    <defs></defs>
    <g id="High-fidelity" stroke="none" stroke-width="1" fill="none" fill-rule="evenodd" fill-opacity="0.54">
        <g id="Desktop-Copy-32" transform="translate(-853.000000, -612.000000)" fill-rule="nonzero" fill="#000000">
            <g id="Focus-Areas" transform="translate(333.000000, 526.000000)">
                <g id="Area-Copy-2" transform="translate(496.000000, 86.000000)">
                    <g id="puzzle-piece" transform="translate(24.000000, 0.000000)">
                        <path d="M52,34.3125 C52,36 51.5364583,37.40625 50.609375,38.53125 C49.6822917,39.65625 48.3958333,40.21875 46.75,40.21875 C45.8958333,40.21875 45.0885417,40.0364583 44.328125,39.671875 C43.5677083,39.3072917 42.953125,38.9114583 42.484375,38.484375 C42.015625,38.0572917 41.4270833,37.6614583 40.71875,37.296875 C40.0104167,36.9322917 39.2708333,36.75 38.5,36.75 C36.2083333,36.75 35.0625,38.0416667 35.0625,40.625 C35.0625,41.4375 35.2291667,42.6354167 35.5625,44.21875 C35.8958333,45.8020833 36.0520833,47 36.03125,47.8125 L36.03125,47.96875 C35.5729167,47.96875 35.2291667,47.9791667 35,48 C34.2916667,48.0625 33.2760417,48.1822917 31.953125,48.359375 C30.6302083,48.5364583 29.4270833,48.6770833 28.34375,48.78125 C27.2604167,48.8854167 26.2395833,48.9375 25.28125,48.9375 C24.0104167,48.9375 22.9375,48.6614583 22.0625,48.109375 C21.1875,47.5572917 20.75,46.6875 20.75,45.5 C20.75,44.7291667 20.9322917,43.9895833 21.296875,43.28125 C21.6614583,42.5729167 22.0572917,41.984375 22.484375,41.515625 C22.9114583,41.046875 23.3072917,40.4322917 23.671875,39.671875 C24.0364583,38.9114583 24.21875,38.1041667 24.21875,37.25 C24.21875,35.6041667 23.65625,34.3177083 22.53125,33.390625 C21.40625,32.4635417 20,32 18.3125,32 C16.5625,32 15.0729167,32.4739583 13.84375,33.421875 C12.6145833,34.3697917 12,35.6979167 12,37.40625 C12,38.3020833 12.15625,39.1666667 12.46875,40 C12.78125,40.8333333 13.1302083,41.5052083 13.515625,42.015625 C13.9010417,42.5260417 14.25,43.078125 14.5625,43.671875 C14.875,44.265625 15.03125,44.7916667 15.03125,45.25 C15.03125,46.1875 14.5520833,47.1145833 13.59375,48.03125 C12.8229167,48.7604167 11.6041667,49.125 9.9375,49.125 C7.95833333,49.125 5.40625,48.875 2.28125,48.375 C2.09375,48.3333333 1.80729167,48.2916667 1.421875,48.25 C1.03645833,48.2083333 0.75,48.1666667 0.5625,48.125 L0.15625,48.0625 C0.135416667,48.0625 0.104166667,48.0520833 0.0625,48.03125 C0.0208333333,48.03125 0,48.0208333 0,48 L0,16 C0.0416666667,16.0208333 0.223958333,16.0572917 0.546875,16.109375 C0.869791667,16.1614583 1.22395833,16.2135417 1.609375,16.265625 C1.99479167,16.3177083 2.21875,16.3541667 2.28125,16.375 C5.40625,16.875 7.95833333,17.125 9.9375,17.125 C11.6041667,17.125 12.8229167,16.7604167 13.59375,16.03125 C14.5520833,15.1145833 15.03125,14.1875 15.03125,13.25 C15.03125,12.7916667 14.875,12.265625 14.5625,11.671875 C14.25,11.078125 13.9010417,10.5260417 13.515625,10.015625 C13.1302083,9.50520833 12.78125,8.83333333 12.46875,8 C12.15625,7.16666667 12,6.30208333 12,5.40625 C12,3.69791667 12.6145833,2.36979167 13.84375,1.421875 C15.0729167,0.473958333 16.5729167,0 18.34375,0 C20.0104167,0 21.40625,0.463541667 22.53125,1.390625 C23.65625,2.31770833 24.21875,3.60416667 24.21875,5.25 C24.21875,6.10416667 24.0364583,6.91145833 23.671875,7.671875 C23.3072917,8.43229167 22.9114583,9.046875 22.484375,9.515625 C22.0572917,9.984375 21.6614583,10.5729167 21.296875,11.28125 C20.9322917,11.9895833 20.75,12.7291667 20.75,13.5 C20.75,14.6875 21.1875,15.5572917 22.0625,16.109375 C22.9375,16.6614583 24.0104167,16.9375 25.28125,16.9375 C26.6145833,16.9375 28.4895833,16.78125 30.90625,16.46875 C33.3229167,16.15625 35.0208333,15.9791667 36,15.9375 L36,16 C35.9791667,16.0416667 35.9427083,16.2239583 35.890625,16.546875 C35.8385417,16.8697917 35.7864583,17.2239583 35.734375,17.609375 C35.6822917,17.9947917 35.6458333,18.21875 35.625,18.28125 C35.125,21.40625 34.875,23.9583333 34.875,25.9375 C34.875,27.6041667 35.2395833,28.8229167 35.96875,29.59375 C36.8854167,30.5520833 37.8125,31.03125 38.75,31.03125 C39.2083333,31.03125 39.734375,30.875 40.328125,30.5625 C40.921875,30.25 41.4739583,29.9010417 41.984375,29.515625 C42.4947917,29.1302083 43.1666667,28.78125 44,28.46875 C44.8333333,28.15625 45.6979167,28 46.59375,28 C48.3020833,28 49.6302083,28.6145833 50.578125,29.84375 C51.5260417,31.0729167 52,32.5625 52,34.3125 Z" id="Shape"></path>
                    </g>
                </g>
            </g>
        </g>
    </g>
</svg>